<svg width="38" height="38" viewBox="0 0 38 38" fill="none" xmlns="http://www.w3.org/2000/svg"><g filter="url(#filter0_d)"><path d="M20 34C28.8366 34 36 26.8366 36 18C36 9.16344 28.8366 2 20 2C11.1634 2 4 9.16344 4 18C4 26.8366 11.1634 34 20 34Z" fill="black"/></g><path d="M20 34C28.8366 34 36 26.8366 36 18C36 9.16344 28.8366 2 20 2C11.1634 2 4 9.16344 4 18C4 26.8366 11.1634 34 20 34Z" fill="white" stroke="#CACACA"/><path fill-rule="evenodd" clip-rule="evenodd" d="M16.25 12.5L21.5338 18.25L16.25 24L17.8581 25.75L24.75 18.25L17.8581 10.75L16.25 12.5Z" fill="#555555"/><defs><filter id="filter0_d" x="0" y="0" width="38" height="38" filterUnits="userSpaceOnUse" color-interpolation-filters="sRGB"><feFlood flood-opacity="0" result="BackgroundImageFix"/><feColorMatrix in="SourceAlpha" type="matrix" values="0 0 0 0 0 0 0 0 0 0 0 0 0 0 0 0 0 0 127 0"/><feOffset dx="-1" dy="1"/><feGaussianBlur stdDeviation="1.5"/><feColorMatrix type="matrix" values="0 0 0 0 0.0980392 0 0 0 0 0.0980392 0 0 0 0 0.0980392 0 0 0 0.3 0"/><feBlend mode="normal" in2="BackgroundImageFix" result="effect1_dropShadow"/><feBlend mode="normal" in="SourceGraphic" in2="effect1_dropShadow" result="shape"/></filter></defs></svg>