<svg xmlns="http://www.w3.org/2000/svg" width="48" height="48" viewBox="0 0 48 48" version="1.1"><g stroke="none" stroke-width="1" fill="none" fill-rule="evenodd"><path d="M48 24C48 37.3 37.3 48 24 48 10.7 48 0 37.3 0 24 0 10.7 10.7 0 24 0 37.3 0 48 10.7 48 24M15 20.6C15 19.6 15.2 18.6 15.5 17.7 15.9 16.8 16.4 16 17 15.3 17.7 14.6 18.4 14 19.2 13.5 20.1 13 20.9 12.6 21.9 12.4 22.8 12.1 23.8 12 24.8 12 26.3 12 27.7 12.3 29 13 30.4 13.6 31.4 14.5 32.2 15.8 33.1 17 33.5 18.4 33.5 19.9 33.5 20.8 33.4 21.7 33.2 22.6 33 23.5 32.7 24.3 32.3 25.2 31.9 26 31.4 26.7 30.9 27.3 30.3 27.9 29.6 28.4 28.8 28.8 28 29.2 27.1 29.3 26.1 29.3 25.4 29.3 24.8 29.2 24.1 28.9 23.5 28.6 23 28.2 22.7 27.6 22.6 28 22.5 28.5 22.3 29.2 22.2 30 22 30.4 22 30.6 21.9 30.8 21.8 31.2 21.7 31.6 21.5 32.1 21.4 32.5 21.3 32.7 21.2 32.9 21.1 33.2 20.9 33.6 20.7 34 20.4 34.3 20.2 34.7 20 35 19.7 35.4 19.3 35.9L19.1 36 19 35.9C18.8 34.3 18.7 33.4 18.7 33.1 18.7 32.3 18.9 31.3 19.1 30.2 19.3 29.1 19.6 27.7 20 26 20.5 24.4 20.7 23.4 20.8 23.1 20.5 22.5 20.3 21.7 20.3 20.7 20.3 19.9 20.6 19.1 21.1 18.4 21.6 17.7 22.2 17.4 23 17.4 23.5 17.4 24 17.5 24.3 17.9 24.7 18.3 24.8 18.8 24.8 19.4 24.8 20 24.6 21 24.2 22.2 23.8 23.4 23.6 24.3 23.6 24.9 23.6 25.5 23.8 26 24.2 26.4 24.6 26.8 25.2 27 25.8 27 26.3 27 26.8 26.9 27.2 26.6 27.7 26.4 28.1 26 28.4 25.6 28.7 25.2 28.9 24.8 29.2 24.3 29.4 23.8 29.6 23.2 29.7 22.7 29.9 22.1 30 21.6 30 21.1 30.1 20.6 30.1 20.1 30.1 19.6 30.1 18 29.6 16.7 28.5 15.7 27.5 14.8 26.1 14.4 24.4 14.4 22.5 14.4 20.9 15 19.6 16.2 18.3 17.5 17.7 19 17.7 21 17.7 21.4 17.7 21.8 17.8 22.2 18 22.6 18.1 22.9 18.2 23.1 18.4 23.4 18.5 23.6 18.6 23.8 18.7 24 18.8 24.1 18.8 24.2 18.8 24.5 18.7 24.8 18.6 25.3 18.4 25.7 18.3 25.9 18.1 25.9 18 25.9 18 25.9 17.8 25.9 17.3 25.7 16.9 25.5 16.5 25.1 16.1 24.7 15.8 24.2 15.6 23.7 15.4 23.2 15.3 22.7 15.2 22.1 15.1 21.6 15 21.1 15 20.6Z" fill="#E60023"/></g></svg>
