<svg fill="none" height="38" viewBox="0 0 38 38" width="38" xmlns="http://www.w3.org/2000/svg"><g clip-rule="evenodd" fill-rule="evenodd"><path d="m27.64 19.2045c0-.6381-.0573-1.2518-.1636-1.8409h-8.4764v3.4814h4.8436c-.2086 1.125-.8427 2.0782-1.7959 2.7164v2.2581h2.9087c1.7018-1.5668 2.6836-3.874 2.6836-6.615z" fill="#4285f4"/><path d="m19 28c2.43 0 4.4673-.8059 5.9564-2.1805l-2.9087-2.2581c-.8059.54-1.8368.8591-3.0477.8591-2.3441 0-4.3282-1.5832-5.0359-3.7105h-3.0068v2.3318c1.4809 2.9414 4.5245 4.9582 8.0427 4.9582z" fill="#34a853"/><path d="m13.9641 20.71c-.18-.54-.2823-1.1168-.2823-1.71s.1023-1.17.2823-1.71v-2.3318h-3.0068c-.6096 1.215-.9573 2.5895-.9573 4.0418s.3477 2.8268.9573 4.0418z" fill="#fbbc05"/><path d="m19 13.5795c1.3214 0 2.5077.4541 3.4405 1.346l2.5813-2.5814c-1.5586-1.4523-3.5959-2.3441-6.0218-2.3441-3.5182 0-6.5618 2.0168-8.0427 4.9582l3.0068 2.3318c.7077-2.1273 2.6918-3.7105 5.0359-3.7105z" fill="#ea4335"/></g></svg>