<svg xmlns="http://www.w3.org/2000/svg" width="48" height="48" viewBox="0 0 48 48" version="1.1"><g stroke="none" stroke-width="1" fill="none" fill-rule="evenodd"><g fill="#2E6407"><path d="M48 24C48 37.3 37.3 48 24 48 10.7 48 0 37.3 0 24 0 10.7 10.7 0 24 0 37.3 0 48 10.7 48 24"/></g><path d="M33.7 15C34.4 15 34.9 15.2 35.3 15.7 35.8 16.1 36 16.6 36 17.2L36 30.7C36 31.4 35.8 31.9 35.3 32.3 34.9 32.8 34.4 33 33.7 33L14.2 33C13.6 33 13.1 32.8 12.7 32.3 12.2 31.9 12 31.4 12 30.7L12 17.2C12 16.6 12.2 16.1 12.7 15.7 13.1 15.2 13.6 15 14.2 15L33.7 15ZM33.7 17.2L14.2 17.2 14.2 19.2C15.3 20 17.5 21.7 20.6 24.1L21 24.5C21.6 25 22.1 25.4 22.5 25.6 23.1 26 23.6 26.2 24 26.2 24.4 26.2 24.9 26 25.5 25.6 25.9 25.4 26.4 25 27 24.5L27.4 24.1C30.5 21.7 32.7 20.1 33.7 19.2L33.7 17.2ZM14.2 30.7L33.7 30.7 33.7 22 28.3 26.3C27.5 27 26.9 27.5 26.4 27.7 25.5 28.2 24.7 28.5 24 28.5 23.2 28.5 22.4 28.2 21.6 27.7 21.1 27.5 20.5 27 19.6 26.3L14.2 22 14.2 30.7Z" fill="#FFFFFF"/></g></svg>
