<svg width="16" height="16" viewBox="0 0 24 24" xmlns="http://www.w3.org/2000/svg" fill="#555">
    <path d="M4,0 C2.93914,0 1.921718,0.421428 1.171572,1.171572 C0.421428,1.921718 0,2.93914 0,4 L0,24 L3.846,20.158 L4,20.16 L20,20.16 C21.0608,20.16 22.0782,19.73858 22.8284,18.98842 C23.5786,18.23828 24,17.22086 24,16.16 L24,4 C24,2.93914 23.5786,1.921718 22.8284,1.171572 C22.0782,0.421428 21.0608,0 20,0 L4,0 Z M2,4 C2,3.46956 2.21072,2.96086 2.58578,2.58578 C2.96086,2.21072 3.46956,2 4,2 L20,2 C20.5304,2 21.0392,2.21072 21.4142,2.58578 C21.7892,2.96086 22,3.46956 22,4 L22,16.16 C22,16.69044 21.7892,17.19914 21.4142,17.57422 C21.0392,17.94928 20.5304,18.16 20,18.16 L4,18.16 L3.048,18.126 L2,19.174 L2,4 Z"></path>
</svg>
