<svg width="16" height="16" viewBox="0 0 16 16" fill="none" xmlns="http://www.w3.org/2000/svg">
<path d="M12.9867 8.23356C11.9401 5.51359 8.21342 5.36692 9.11341 1.41359C9.18008 1.12026 8.86675 0.89359 8.61341 1.04692C6.19341 2.47359 4.45341 5.33359 5.91341 9.08023C6.03341 9.3869 5.67341 9.67356 5.41341 9.47356C4.20675 8.56023 4.08008 7.2469 4.18675 6.30692C4.22675 5.96026 3.77341 5.79359 3.58008 6.08026C3.12675 6.77356 2.66675 7.89356 2.66675 9.58023C2.92008 13.3136 6.07342 14.4602 7.20675 14.6069C8.82675 14.8136 10.5801 14.5136 11.8401 13.3602C13.2267 12.0736 13.7334 10.0202 12.9867 8.23356ZM6.80008 11.5869C7.76008 11.3536 8.25341 10.6602 8.38675 10.0469C8.60675 9.09356 7.74675 8.16023 8.32675 6.65359C8.54675 7.90023 10.5067 8.68023 10.5067 10.0402C10.5601 11.7269 8.73341 13.1736 6.80008 11.5869Z" fill="#D33C0C"/>
</svg>
