<svg xmlns="http://www.w3.org/2000/svg" width="48" height="48" viewBox="0 0 48 48" version="1.1">
<path d="M48,24 C48,37.256 37.2528,48 23.9984,48 C10.744,48 0,37.256 0,24 C0,10.7456 10.744,0 23.9984,0 C37.2528,0 48,10.7456 48,24" fill="#1B75BB"></path>
<path d="M29.9824,10.9232 L29.9824,14.9312 L27.6016,14.9312 C26.7296,14.9312 26.1424,15.1136 25.8384,15.4784 C25.5344,15.8432 25.3824,16.3888 25.3824,17.1168 L25.3824,19.9856 L29.832,19.9856 L29.2384,24.4784 L25.3824,24.4784 L25.3824,35.9984 L20.7376,35.9984 L20.7376,24.4784 L16.8688,24.4784 L16.8688,19.9856 L20.7376,19.9856 L20.7376,16.6768 C20.7376,14.7952 21.264,13.3344 22.3168,12.2992 C23.368,11.2624 24.7696,10.7424 26.5216,10.7424 C28.0112,10.7424 29.1648,10.8032 29.9824,10.9232 Z" fill="#FFFFFF"></path></svg>
