<svg xmlns="http://www.w3.org/2000/svg" width="48" height="48" viewBox="0 0 48 48" version="1.1"><circle cx="24" cy="24" r="24" fill="#0077b5"/><path d="M17.8,15.7a2.73,2.73,0,0,1-.8,1.9,3,3,0,0,1-2.1.7h-.1A2.58,2.58,0,0,1,12,15.7a2.56,2.56,0,0,1,.8-1.9,2.86,2.86,0,0,1,2.1-.8,2.86,2.86,0,0,1,2.1.8A2.56,2.56,0,0,1,17.8,15.7Z" fill="#fff" fill-rule="evenodd"/><rect x="12.3" y="20.5" width="5.2" height="15.4" fill="#fff"/><path d="M36,27.1v8.8H30.9V27.7a4,4,0,0,0-.7-2.6,2.2,2.2,0,0,0-1.9-.9,2.31,2.31,0,0,0-1.7.5,4.12,4.12,0,0,0-1,1.3,4.44,4.44,0,0,0-.2,1.3v8.6H20.3V20.5h5.1v2.2l.6-.9a6.47,6.47,0,0,0,.9-.8,6.11,6.11,0,0,1,1.4-.7,9,9,0,0,1,1.8-.2,5.51,5.51,0,0,1,4.3,1.8A7.37,7.37,0,0,1,36,27.1Z" fill="#fff" fill-rule="evenodd"/></svg>