<svg xmlns="http://www.w3.org/2000/svg" width="48" height="48" viewBox="0 0 48 48" version="1.1"><g stroke="none" stroke-width="1" fill="none" fill-rule="evenodd"><path d="M48 24C48 37.3 37.3 48 24 48 10.7 48 0 37.3 0 24 0 10.7 10.7 0 24 0 37.3 0 48 10.7 48 24" fill="#E60070"/><g transform="translate(12.000000, 12.000000)" fill="#FFFFFF" fill-rule="nonzero"><path d="M12 0C15.3 0 15.7 0 16.9 0.1 18.2 0.1 19.1 0.3 19.9 0.6 20.6 0.9 21.3 1.3 22 2 22.7 2.7 23.1 3.4 23.4 4.1 23.7 4.9 23.9 5.8 23.9 7.1 24 8.3 24 8.7 24 12 24 15.3 24 15.7 23.9 16.9 23.9 18.2 23.7 19.1 23.4 19.9 23.1 20.6 22.7 21.3 22 22 21.3 22.7 20.6 23.1 19.9 23.4 19.1 23.7 18.2 23.9 16.9 23.9 15.7 24 15.3 24 12 24 8.7 24 8.3 24 7.1 23.9 5.8 23.9 4.9 23.7 4.1 23.4 3.4 23.1 2.7 22.7 2 22 1.3 21.3 0.9 20.6 0.6 19.9 0.3 19.1 0.1 18.2 0.1 16.9 0 15.7 0 15.3 0 12 0 8.7 0 8.3 0.1 7.1 0.1 5.8 0.3 4.9 0.6 4.1 0.9 3.4 1.3 2.7 2 2 2.7 1.3 3.4 0.9 4.1 0.6 4.9 0.3 5.8 0.1 7.1 0.1 8.3 0 8.7 0 12 0ZM12 2.2C8.8 2.2 8.4 2.2 7.2 2.2 6 2.3 5.3 2.5 4.9 2.6 4.4 2.9 4 3.1 3.5 3.5 3.1 4 2.9 4.4 2.6 4.9 2.5 5.3 2.3 6 2.2 7.2 2.2 8.4 2.2 8.8 2.2 12 2.2 15.2 2.2 15.6 2.2 16.8 2.3 18 2.5 18.7 2.6 19.1 2.9 19.6 3.1 20 3.5 20.5 4 20.9 4.4 21.1 4.9 21.4 5.3 21.5 6 21.7 7.2 21.8 8.4 21.8 8.8 21.8 12 21.8 15.2 21.8 15.6 21.8 16.8 21.8 18 21.7 18.7 21.5 19.1 21.4 19.6 21.1 20 20.9 20.5 20.5 20.9 20 21.1 19.6 21.4 19.1 21.5 18.7 21.7 18 21.8 16.8 21.8 15.6 21.8 15.2 21.8 12 21.8 8.8 21.8 8.4 21.8 7.2 21.7 6 21.5 5.3 21.4 4.9 21.1 4.4 20.9 4 20.5 3.5 20 3.1 19.6 2.9 19.1 2.6 18.7 2.5 18 2.3 16.8 2.2 15.6 2.2 15.2 2.2 12 2.2ZM12 5.8C15.4 5.8 18.2 8.6 18.2 12 18.2 15.4 15.4 18.2 12 18.2 8.6 18.2 5.8 15.4 5.8 12 5.8 8.6 8.6 5.8 12 5.8ZM12 16C14.2 16 16 14.2 16 12 16 9.8 14.2 8 12 8 9.8 8 8 9.8 8 12 8 14.2 9.8 16 12 16ZM19.8 5.6C19.8 6.4 19.2 7 18.4 7 17.6 7 17 6.4 17 5.6 17 4.8 17.6 4.2 18.4 4.2 19.2 4.2 19.8 4.8 19.8 5.6Z"/></g></g></svg>
