<svg xmlns="http://www.w3.org/2000/svg" viewBox="0 0 129.24 129.24"><defs><linearGradient id="a" x1="64.62" y1="33.79" x2="64.62" y2="104.92" gradientUnits="userSpaceOnUse"><stop offset=".16" stop-color="#f4d728"/><stop offset=".18" stop-color="#f3d527"/><stop offset=".73" stop-color="#f0a71d"/><stop offset="1" stop-color="#ef9519"/></linearGradient></defs><path style="fill:#2f6450;stroke-width:0" d="M0 0h129.24v129.24H0z"/><path d="M26.1 90.17h77.03a46.89 46.89 0 0 1-2.99 4.01H29.09a46.89 46.89 0 0 1-2.99-4.01Zm-7.28-19.33h91.58c.18-1.32.31-2.66.37-4.01H18.45c.06 1.35.19 2.69.37 4.01Zm77.8 27.11H32.61c1.5 1.44 3.09 2.78 4.78 4.01h54.46a46.97 46.97 0 0 0 4.78-4.01Zm-53.13 7.78c6.33 3.26 13.51 5.11 21.12 5.11s14.79-1.85 21.12-5.11H43.48Zm65.18-27.11c.42-1.31.77-2.65 1.07-4.01H19.49c.3 1.36.65 2.7 1.07 4.01h88.11Zm2.13-15.56c-.82-24.8-21.18-44.66-46.18-44.66S19.26 38.26 18.44 63.06h92.36ZM21.94 82.39a44.62 44.62 0 0 0 1.91 4.01h81.54c.7-1.3 1.33-2.64 1.91-4.01H21.94Z" style="stroke-width:0;fill:url(#a)"/></svg>
