<svg viewBox="0 0 19 13" xmlns="http://www.w3.org/2000/svg"><path d="M9.45658 0.389893C5.28992 0.389893 1.73158 2.98156 0.289917 6.63989C1.73158 10.2982 5.28992 12.8899 9.45658 12.8899C13.6232 12.8899 17.1816 10.2982 18.6232 6.63989C17.1816 2.98156 13.6232 0.389893 9.45658 0.389893ZM9.45658 10.8066C7.15658 10.8066 5.28992 8.93989 5.28992 6.63989C5.28992 4.33989 7.15658 2.47323 9.45658 2.47323C11.7566 2.47323 13.6232 4.33989 13.6232 6.63989C13.6232 8.93989 11.7566 10.8066 9.45658 10.8066ZM9.45658 4.13989C8.07325 4.13989 6.95658 5.25656 6.95658 6.63989C6.95658 8.02323 8.07325 9.13989 9.45658 9.13989C10.8399 9.13989 11.9566 8.02323 11.9566 6.63989C11.9566 5.25656 10.8399 4.13989 9.45658 4.13989Z" fill="#125D94"/></svg>
