<svg fill="none" height="38" viewBox="0 0 38 38" width="38" xmlns="http://www.w3.org/2000/svg"><path d="m19.7227 14.1538c.832 0 1.875-.5492 2.4961-1.2816.5624-.6637.9726-1.5906.9726-2.5175 0-.1258-.0117-.2517-.0351-.3547-.9258.0343-2.0391.6065-2.7071 1.3732-.5273.5836-1.0078 1.499-1.0078 2.4374 0 .1373.0234.2746.0352.3204.0586.0114.1523.0228.2461.0228zm-2.9297 13.8462c1.1367 0 1.6406-.7438 3.0586-.7438 1.4414 0 1.7578.7209 3.0234.7209 1.2422 0 2.0742-1.1214 2.8594-2.2199.8789-1.2588 1.2422-2.4946 1.2656-2.5519-.082-.0228-2.4609-.9726-2.4609-3.6389 0-2.3115 1.875-3.3528 1.9804-3.4329-1.2422-1.7393-3.1289-1.7851-3.6445-1.7851-1.3945 0-2.5312.8239-3.2461.8239-.7734 0-1.793-.7781-3-.7781-2.2969 0-4.6289 1.8537-4.6289 5.3553 0 2.1742.8672 4.4743 1.9336 5.9619.9141 1.2587 1.7109 2.2886 2.8594 2.2886z" fill="#000"/></svg>