<svg fill="none" height="38" viewBox="0 0 38 38" width="38" xmlns="http://www.w3.org/2000/svg"><g clip-rule="evenodd" fill-rule="evenodd"><path d="m28 19c0-4.9706-4.0294-9-9-9s-9 4.0294-9 9c0 4.4922 3.2912 8.2155 7.5938 8.8907v-6.2891h-2.2852v-2.6016h2.2852v-1.9828c0-2.2556 1.3436-3.5016 3.3994-3.5016.9847 0 2.0146.1758 2.0146.1758v2.2148h-1.1349c-1.118 0-1.4667.6938-1.4667 1.4055v1.6883h2.4961l-.399 2.6016h-2.0971v6.2891c4.3026-.6752 7.5938-4.3985 7.5938-8.8907z" fill="#000"/><path d="m22.5033 21.6016.399-2.6016h-2.4961v-1.6883c0-.7117.3487-1.4055 1.4667-1.4055h1.1349v-2.2148s-1.0299-.1758-2.0146-.1758c-2.0558 0-3.3994 1.246-3.3994 3.5016v1.9828h-2.2852v2.6016h2.2852v6.2891c.4582.0719.9278.1093 1.4062.1093s.948-.0374 1.4062-.1093v-6.2891z" fill="#fff"/></g></svg>