<svg viewBox="0 0 26 26" xmlns="http://www.w3.org/2000/svg"><circle fill="#FFF" cx="13" cy="13" r="11"/><path fill="#D74000" d="M12.8043 0.0800781C6.00431 0.0800781 0.485474 5.81448 0.485474 12.8801C0.485474 19.9457 6.00431 25.6801 12.8043 25.6801C19.6043 25.6801 25.1232 19.9457 25.1232 12.8801C25.1232 5.81448 19.6043 0.0800781 12.8043 0.0800781ZM12.8043 23.1201C7.37171 23.1201 2.94924 18.5249 2.94924 12.8801C2.94924 7.23528 7.37171 2.64008 12.8043 2.64008C18.2369 2.64008 22.6594 7.23528 22.6594 12.8801C22.6594 18.5249 18.2369 23.1201 12.8043 23.1201ZM17.584 8.13128L10.3405 15.6577L8.0246 13.2513C7.54417 12.7521 6.76808 12.7521 6.28765 13.2513C5.80721 13.7505 5.80721 14.5569 6.28765 15.0561L9.47823 18.3713C9.95866 18.8705 10.7347 18.8705 11.2152 18.3713L19.3333 9.93608C19.8137 9.43688 19.8137 8.63048 19.3333 8.13128C18.8529 7.63208 18.0645 7.63208 17.584 8.13128Z" /></svg>
