<svg xmlns="http://www.w3.org/2000/svg" width="48" height="48" viewBox="0 0 48 48" version="1.1"><g stroke="none" stroke-width="1" fill="none" fill-rule="evenodd"><path d="M48 24C48 37.3 37.3 48 24 48 10.7 48 0 37.3 0 24 0 10.7 10.7 0 24 0 37.3 0 48 10.7 48 24M36 24.3C36 24.8 35.9 25.3 35.6 25.7 35.3 26.2 35 26.5 34.5 26.7 34.6 27.1 34.7 27.6 34.7 28 34.7 29.4 34.2 30.7 33.3 31.8 32.3 33 31 34 29.4 34.6 27.7 35.3 26 35.7 24 35.7 22.1 35.7 20.3 35.3 18.7 34.6 17 34 15.7 33 14.8 31.8 13.8 30.7 13.4 29.4 13.4 28 13.4 27.6 13.4 27.2 13.5 26.7 13.1 26.5 12.7 26.2 12.4 25.8 12.1 25.3 12 24.8 12 24.3 12 23.6 12.3 23 12.8 22.4 13.3 21.9 13.9 21.7 14.7 21.7 15.4 21.7 16.1 21.9 16.6 22.5 18.6 21.2 20.9 20.4 23.5 20.3L25.1 13.4C25.1 13.2 25.2 13.2 25.3 13.1 25.4 13 25.5 13 25.6 13L30.6 14.1C30.7 13.8 31 13.5 31.3 13.3 31.6 13.1 31.9 13 32.3 13 32.9 13 33.4 13.2 33.8 13.6 34.1 14 34.3 14.4 34.3 15 34.3 15.5 34.1 16 33.8 16.4 33.4 16.8 32.9 17 32.3 17 31.8 17 31.3 16.8 30.9 16.4 30.5 16 30.3 15.6 30.3 15L25.9 14 24.5 20.3C27.1 20.4 29.5 21.1 31.4 22.5 31.9 21.9 32.6 21.7 33.3 21.7 34.1 21.7 34.7 21.9 35.2 22.4 35.7 23 36 23.6 36 24.3ZM17.6 27C17.6 27.6 17.8 28 18.2 28.4 18.6 28.8 19 29 19.6 29 20.1 29 20.6 28.8 21 28.4 21.4 28 21.6 27.6 21.6 27 21.6 26.4 21.4 26 21 25.6 20.6 25.2 20.1 25 19.6 25 19 25 18.6 25.2 18.2 25.6 17.8 26 17.6 26.5 17.6 27ZM28.4 31.8C28.5 31.7 28.6 31.5 28.6 31.4 28.6 31.3 28.5 31.2 28.4 31.1 28.4 31 28.2 30.9 28.1 30.9 28 30.9 27.9 31 27.8 31.1 27.4 31.4 26.9 31.7 26.1 31.9 25.4 32.1 24.7 32.2 24 32.2 23.3 32.2 22.6 32.1 21.9 31.9 21.1 31.7 20.6 31.4 20.2 31.1 20.1 31 20 30.9 19.9 30.9 19.8 30.9 19.6 31 19.6 31.1 19.5 31.1 19.4 31.3 19.4 31.4 19.4 31.5 19.5 31.7 19.6 31.8 19.9 32.1 20.5 32.4 21.1 32.7 21.8 32.9 22.4 33 22.8 33.1 23.2 33.1 23.6 33.1 24 33.1 24.4 33.1 24.8 33.1 25.2 33.1 25.6 33 26.2 32.9 26.9 32.7 27.5 32.4 28.1 32.1 28.4 31.8ZM27 28.4C27.4 28.8 27.9 29 28.4 29 29 29 29.4 28.8 29.8 28.4 30.2 28 30.4 27.6 30.4 27 30.4 26.5 30.2 26 29.8 25.6 29.4 25.2 28.9 25 28.4 25 27.8 25 27.4 25.2 27 25.6 26.6 26 26.4 26.4 26.4 27 26.4 27.5 26.6 28 27 28.4Z" fill="#FF5700"/></g></svg>
