<svg xmlns="http://www.w3.org/2000/svg" width="48" height="48" viewBox="0 0 48 48" version="1.1">
<g stroke="none" stroke-width="1" fill="none" fill-rule="evenodd"><path d="M48 24C48 37.3 37.3 48 24 48 10.7 48 0 37.3 0 24 0 10.7 10.7 0 24 0 37.3 0 48 10.7 48 24" fill="#D9252A"/><g transform="translate(12.000000, 16.000000)"><path d="M23.4 2.8C23.2 1.8 22.3 1 21.3 0.7 19.4 0.2 12 0.2 12 0.2 12 0.2 4.5 0.2 2.6 0.7 1.6 1 0.8 1.8 0.5 2.8 0 4.7 0 8.6 0 8.6 0 8.6 0 12.5 0.5 14.3 0.8 15.4 1.6 16.2 2.6 16.4 4.5 16.9 12 16.9 12 16.9 12 16.9 19.4 16.9 21.3 16.4 22.3 16.2 23.2 15.4 23.4 14.3 23.9 12.5 23.9 8.6 23.9 8.6 23.9 8.6 23.9 4.7 23.4 2.8" fill="#FFFFFF"/><polyline fill="#D9252A" points="9.6 12.2 15.8 8.6 9.6 5 9.6 12.2"/></g></g>
</svg>
